P1
# CREATOR: GIMP PNM Filter Version 1.1
5 5
00110
00110
11000
11000
11000